<svg width="184" height="43" viewBox="0 0 184 43" fill="none" xmlns="http://www.w3.org/2000/svg">
<path d="M22.6147 29.1858H15.9825V12.8201H22.534C23.6048 12.7809 24.6725 12.9559 25.6713 13.3341C26.5145 13.685 27.2263 14.2804 27.71 15.0392C28.1803 15.7517 28.4323 16.5799 28.4366 17.427C28.4368 18.2132 28.2089 18.9834 27.7792 19.6489C27.6159 19.9111 27.4224 20.1543 27.2025 20.3737C27.6073 20.6359 27.9649 20.9614 28.2607 21.3372C28.8747 22.1245 29.1988 23.0903 29.1806 24.0789C29.186 24.8743 29.0014 25.66 28.6414 26.3739C28.3269 27.0342 27.8554 27.612 27.2659 28.0593C26.6734 28.4728 26.0032 28.7687 25.2935 28.9301C24.4146 29.1213 23.515 29.2071 22.6147 29.1858V29.1858ZM19.76 25.7278H22.6147C23.0154 25.7397 23.4165 25.7209 23.8143 25.6716C24.1103 25.6294 24.3958 25.5342 24.6563 25.3907C24.8535 25.2704 25.0138 25.1006 25.1205 24.8991C25.2541 24.6458 25.3196 24.3636 25.3108 24.0789C25.3224 23.7485 25.2266 23.4231 25.0369 23.1491C24.8549 22.8991 24.5918 22.716 24.2901 22.6294C23.6601 22.468 23.0088 22.3999 22.3581 22.4271H19.7628L19.76 25.7278ZM19.76 18.9691H22.1331C22.6818 18.9936 23.2315 18.9483 23.7681 18.8343C24.0383 18.7744 24.2806 18.6292 24.4573 18.4214C24.6115 18.1959 24.6864 17.9278 24.6707 17.6573C24.6801 17.3687 24.6029 17.0836 24.4486 16.8371C24.3245 16.6448 24.1312 16.5046 23.9065 16.4438C23.7047 16.382 23.1741 16.2781 21.888 16.2781H19.76V18.9691Z" fill="#F5F5F5"/>
<path opacity="0.65" d="M9.66398 18.4394V18.3746C10.0004 16.637 10.4927 15.1713 11.5004 13.7112C10.9547 13.8014 10.3895 13.8779 9.7983 13.9399C7.19115 14.2537 4.69652 14.3056 2.07644 14.1268C1.19003 16.7361 0.877281 19.3208 1.03526 22.0698C3.78645 20.7958 6.36142 19.4175 9.60145 18.4648L9.66398 18.4394Z" fill="#F5F5F5"/>
<path d="M7.32029 35.9682C9.28584 37.9059 11.6187 39.437 14.1837 40.4728C16.7487 41.5086 19.4951 42.0286 22.2637 42.0027C25.0324 41.9768 27.7684 41.4055 30.3133 40.3219C32.8583 39.2383 35.1617 37.6639 37.0902 35.6898C38.3059 34.4506 39.4072 33.15 40.2833 31.6542H39.1999C36.7237 31.7284 33.5662 31.5069 30.2573 30.6513C29.0195 31.7191 27.6863 32.4803 26.1338 33.0029C25.6939 33.9134 22.0819 41.562 22.0819 41.562C22.0819 41.562 18.5877 34.5566 17.8787 32.9584C16.107 32.3387 14.4961 31.3353 13.1627 30.0209C12.3627 29.2435 11.6684 28.3655 11.0976 27.4092C8.23735 27.6274 5.43063 28.2986 2.78363 29.3972C3.86052 31.8548 5.40039 34.0852 7.32029 35.9682Z" fill="#F5F5F5"/>
<path opacity="0.8" d="M2.78439 29.39C5.40032 28.3215 8.26683 27.6271 11.1074 27.4051C9.54307 24.6866 9.07293 21.5485 9.64629 18.4536C6.45048 19.4156 3.75675 20.7754 1.04254 22.06C1.17917 24.5642 1.76669 27.0085 2.73511 29.3153L2.78439 29.39Z" fill="#F5F5F5"/>
<path opacity="0.8" d="M30.2515 30.6559C33.3689 31.4326 36.5826 31.7707 39.7965 31.6601L40.3341 31.6432C41.7888 29.18 42.7271 26.455 43.0936 23.6292C40.2266 23.4417 37.41 22.7947 34.7552 21.7136C34.5605 24.7884 33.2518 27.6926 31.0664 29.8992C30.8034 30.1664 30.2515 30.6559 30.2515 30.6559Z" fill="#F5F5F5"/>
<path opacity="0.5" d="M33.8256 15.5288C35.1926 15.6961 36.5402 15.7649 37.9176 15.7423C39.4703 15.7305 40.8455 15.5855 42.3719 15.3062C41.3953 11.7197 39.5846 8.28755 36.8822 5.68427C36.4682 5.28449 36.0241 4.86042 35.5877 4.50098C30.828 4.60276 27.5443 6.25324 24.2681 8.12105C26.8194 8.55773 29.2132 9.77432 31.052 11.56C32.179 12.6486 33.0906 13.9319 33.7409 15.3452L33.8256 15.5288Z" fill="#F5F5F5"/>
<path opacity="0.3" d="M16.324 9.50108C18.7475 8.31671 21.5318 7.67309 24.2013 8.11995H24.2689C27.5526 6.24473 30.8277 4.60426 35.6023 4.50484C32.8832 2.26583 29.6286 0.739727 26.1433 0.0694897C14.2293 -0.80598 16.4672 6.87717 5.93707 7.0263C5.44894 7.59041 5.0531 8.40882 4.62866 9.02039C5.64442 8.82579 6.69762 8.67256 7.72999 8.60044C10.7134 8.39201 13.4972 8.68477 16.324 9.50108Z" fill="#F5F5F5"/>
<path opacity="0.5" d="M9.83166 13.9418C10.4082 13.8804 10.968 13.8049 11.511 13.7155L11.5418 13.6736C11.9508 13.0832 12.4086 12.528 12.9105 12.0138C13.9036 10.9891 15.0628 10.1389 16.3392 9.49905C13.5281 8.67363 10.5874 8.37893 7.66808 8.63005C6.64102 8.7028 5.61937 8.8381 4.60884 9.03521C3.53491 10.6142 2.68295 12.3187 2.07227 14.1273C4.65987 14.3069 7.25666 14.2534 9.83166 13.9418Z" fill="#F5F5F5"/>
<path opacity="0.65" d="M34.7508 21.7205C37.3055 22.7889 40.3348 23.4468 43.0936 23.6322C43.4421 20.8939 43.0885 17.9748 42.3875 15.3064C40.8927 15.5887 39.3761 15.7366 37.8554 15.7484C36.5064 15.7712 35.1575 15.6979 33.8187 15.5288C34.661 17.4341 34.8847 19.6148 34.7508 21.6971V21.7205Z" fill="#F5F5F5"/>
<path d="M183.541 29.5427L183.336 29.3183H183.024V29.5427H182.93V28.8336H183.265C183.362 28.8291 183.458 28.8522 183.535 28.8986C183.567 28.9209 183.593 28.9486 183.61 28.9797C183.626 29.0108 183.634 29.0444 183.632 29.0782C183.635 29.1287 183.616 29.1786 183.578 29.2195C183.54 29.26 183.486 29.2893 183.424 29.3026L183.643 29.5449L183.541 29.5427ZM183.464 29.2061C183.486 29.1889 183.504 29.1685 183.516 29.146C183.528 29.1234 183.534 29.0992 183.534 29.0748C183.534 29.0504 183.528 29.0262 183.516 29.0036C183.504 28.9811 183.486 28.9606 183.464 28.9435C183.405 28.9094 183.333 28.8927 183.26 28.8964H183.021V29.2532H183.26C183.332 29.2577 183.405 29.2419 183.464 29.2083V29.2061Z" fill="#F5F5F5"/>
<path d="M183.287 29.9009C183.145 29.9009 183.008 29.8591 182.89 29.7809C182.773 29.7027 182.681 29.5915 182.627 29.4614C182.573 29.3313 182.559 29.1882 182.587 29.0501C182.614 28.912 182.682 28.7851 182.782 28.6856C182.882 28.586 183.009 28.5182 183.147 28.4907C183.286 28.4633 183.429 28.4774 183.56 28.5312C183.69 28.5851 183.801 28.6764 183.88 28.7935C183.958 28.9105 184 29.0482 184 29.189C183.999 29.3776 183.924 29.5582 183.79 29.6916C183.657 29.825 183.476 29.9002 183.287 29.9009V29.9009ZM183.287 28.5677C183.163 28.5672 183.043 28.6032 182.94 28.6711C182.837 28.7391 182.757 28.8359 182.709 28.9494C182.662 29.0628 182.649 29.1878 182.673 29.3085C182.697 29.4292 182.756 29.5402 182.843 29.6273C182.93 29.7145 183.041 29.7739 183.161 29.7981C183.282 29.8223 183.408 29.8101 183.522 29.7632C183.635 29.7163 183.733 29.6366 183.801 29.5344C183.87 29.4322 183.907 29.312 183.907 29.189C183.907 29.0247 183.841 28.867 183.725 28.7506C183.609 28.6342 183.451 28.5684 183.287 28.5677V28.5677Z" fill="#F5F5F5"/>
<path d="M65.4842 22.1582C66.0278 22.899 66.3072 23.8017 66.2774 24.721C66.3045 25.3711 66.164 26.0173 65.8694 26.5972C65.5748 27.177 65.1361 27.6709 64.5956 28.0312C63.4744 28.8031 61.8524 29.189 59.7296 29.189H51.2982V12.8147H59.2811C61.2731 12.8147 62.8026 13.1969 63.8696 13.9612C64.3762 14.3031 64.7883 14.7678 65.0676 15.3121C65.347 15.8565 65.4845 16.4628 65.4673 17.0748C65.4841 17.8205 65.2891 18.5557 64.9049 19.1945C64.5208 19.8333 63.9634 20.3495 63.2978 20.6829C64.1623 20.9338 64.9269 21.4497 65.4842 22.1582ZM55.0571 15.6641V19.5251H58.8159C59.7502 19.5251 60.4584 19.3612 60.9405 19.0334C61.1747 18.8759 61.3643 18.6604 61.491 18.4079C61.6177 18.1553 61.6772 17.8742 61.6637 17.5918C61.6798 17.3094 61.6215 17.0278 61.4945 16.7752C61.3675 16.5227 61.1765 16.3081 60.9405 16.1531C60.4584 15.8327 59.7502 15.6725 58.8159 15.6725L55.0571 15.6641ZM61.7226 25.845C61.9699 25.6824 62.1701 25.4573 62.303 25.1923C62.4359 24.9274 62.4967 24.632 62.4794 24.336C62.4794 22.9797 61.4759 22.3006 59.4689 22.2987H55.0571V26.3367H59.4689C60.4649 26.3367 61.2161 26.1728 61.7226 25.845Z" fill="#F5F5F5"/>
<path d="M79.2955 29.189L76.1105 24.6157H72.5999V29.1777H68.7778V12.8172H75.9208C77.2276 12.7867 78.526 13.0338 79.7287 13.542C80.7427 13.9732 81.6076 14.6888 82.2173 15.6011C82.8169 16.5439 83.1231 17.6412 83.0978 18.7558C83.1406 19.8603 82.8368 20.9509 82.2282 21.8767C81.6197 22.8026 80.7364 23.5182 79.7004 23.9246L83.4035 29.189H79.2955ZM78.3273 16.6377C77.7327 16.1507 76.8607 15.9073 75.7113 15.9073H72.597V21.6099H75.7113C76.8588 21.6099 77.7308 21.3598 78.3273 20.8598C78.6283 20.5994 78.8653 20.2743 79.0204 19.9091C79.1754 19.544 79.2444 19.1485 79.2219 18.753C79.2461 18.3559 79.178 17.9587 79.0229 17.5919C78.8678 17.2252 78.6298 16.8987 78.3273 16.6377Z" fill="#F5F5F5"/>
<path d="M98.0293 26.1462V29.189H85.5439V12.8147H97.7247V15.8519H89.2452V19.4088H96.7392V22.3673H89.2452V26.1462H98.0293Z" fill="#F5F5F5"/>
<path d="M113.725 26.1462V29.189H101.24V12.8147H113.421V15.8519H104.947V19.4088H112.431V22.3673H104.947V26.1462H113.725Z" fill="#F5F5F5"/>
<path d="M130.135 26.099V29.189H115.866V26.7282L124.829 15.9047H116.045V12.8147H129.784V15.2699L120.849 26.1018L130.135 26.099Z" fill="#F5F5F5"/>
<path d="M145.83 26.099V29.189H131.561V26.7282L140.514 15.8963H131.757V12.8147H145.481V15.2699L136.556 26.1018L145.83 26.099Z" fill="#F5F5F5"/>
<path d="M150.875 28.4329C149.558 27.7305 148.457 26.6725 147.694 25.3754C146.92 24.0518 146.523 22.5366 146.545 20.9976C146.523 19.4586 146.921 17.9434 147.694 16.6197C148.459 15.3252 149.559 14.2694 150.875 13.568C152.287 12.8388 153.849 12.4587 155.433 12.4587C157.016 12.4587 158.578 12.8388 159.99 13.568C161.316 14.2864 162.425 15.3575 163.198 16.667C163.972 17.9764 164.38 19.4747 164.38 21.0018C164.38 22.5289 163.972 24.0273 163.198 25.3367C162.425 26.6461 161.316 27.7173 159.99 28.4357C158.578 29.1649 157.016 29.5449 155.433 29.5449C153.849 29.5449 152.287 29.1649 150.875 28.4357V28.4329ZM158.038 25.5993C158.806 25.1585 159.437 24.5089 159.862 23.7235C160.296 22.8787 160.523 21.9395 160.523 20.9863C160.523 20.033 160.296 19.0938 159.862 18.249C159.437 17.4636 158.806 16.814 158.038 16.3732C157.24 15.9315 156.346 15.7001 155.437 15.7001C154.528 15.7001 153.633 15.9315 152.835 16.3732C152.068 16.814 151.436 17.4636 151.012 18.249C150.577 19.0938 150.35 20.033 150.35 20.9863C150.35 21.9395 150.577 22.8787 151.012 23.7235C151.436 24.5089 152.068 25.1585 152.835 25.5993C153.633 26.041 154.528 26.2724 155.437 26.2724C156.346 26.2724 157.24 26.041 158.038 25.5993V25.5993Z" fill="#F5F5F5"/>
<path d="M176.785 29.1862L173.679 24.6136H170.249V29.1749H166.521V12.8172H173.493C174.769 12.7867 176.036 13.0338 177.211 13.5418C178.2 13.973 179.045 14.6885 179.64 15.6006C180.223 16.545 180.519 17.6431 180.491 18.7576C180.533 19.8619 180.236 20.9523 179.642 21.878C179.048 22.8037 178.186 23.5192 177.175 23.9255L180.79 29.189L176.785 29.1862ZM175.842 16.637C175.258 16.1502 174.406 15.9067 173.286 15.9067H170.246V21.6084H173.286C174.406 21.6084 175.258 21.3584 175.84 20.8584C176.134 20.5981 176.365 20.273 176.516 19.9079C176.668 19.5428 176.735 19.1475 176.713 18.7519C176.737 18.3552 176.671 17.9582 176.52 17.5915C176.369 17.2248 176.137 16.8982 175.842 16.637V16.637Z" fill="#F5F5F5"/>
</svg>
